<svg xmlns="http://www.w3.org/2000/svg" viewBox="0 0 208.26 54.4"><defs><style>.cls-1,.cls-3{fill:#292866;}.cls-2{fill:#231f20;}.cls-3,.cls-5{stroke:#231f20;stroke-miterlimit:10;}.cls-4{fill:#2290c7;}.cls-5{fill:#ffdd12;}.cls-6{fill:#f4f2e7;}.cls-7{fill:#fff;}</style></defs><g id="Layer_2" data-name="Layer 2"><g id="Layer_1-2" data-name="Layer 1"><path class="cls-1" d="M22.67,53.85c-7,0-12.48-2.54-16.31-7.54S.5,35.07.5,27.14,2.47,12.87,6.37,8,15.7.5,22.67.5,35.06,3,39.05,8s5.8,11.48,5.8,19.18-2,14.14-5.79,19.17S29.57,53.85,22.67,53.85Zm0-44c-3.79,0-7,1.75-9.45,5.19s-2.87,5.6-2.87,12.12.28,8.55,2.86,12,5.65,5.27,9.46,5.27,6.93-1.77,9.46-5.27,2.87-5.6,2.87-12S34.66,18.6,32.13,15,26.4,9.83,22.67,9.83Z"/><path class="cls-2" d="M22.67,1c6.77,0,12.1,2.45,16,7.27s5.69,11.24,5.69,18.87-2,14-5.69,18.86-9.22,7.35-16,7.35S10.5,50.9,6.76,46,1,34.84,1,27.14s1.87-14,5.76-18.87S15.83,1,22.67,1m0,44c3.89,0,7.2-1.8,9.87-5.47s3-5.72,3-12.34-.37-8.74-3-12.41-6-5.4-9.87-5.4-7.27,1.8-9.86,5.4-3,5.78-3,12.41.3,8.74,3,12.34S18.71,45,22.67,45M22.67,0C15.54,0,9.92,2.58,6,7.66S0,19.2,0,27.14,2,41.56,6,46.63s9.53,7.72,16.69,7.72,12.7-2.6,16.77-7.72,5.91-11.69,5.91-19.49-2-14.36-5.9-19.47C35.35,2.57,29.71,0,22.67,0Zm0,44C19,44,16,42.3,13.63,38.9s-2.78-5.27-2.78-11.76.25-8.36,2.77-11.82c2.38-3.31,5.43-5,9.05-5s6.61,1.68,9.07,5,2.76,5.1,2.76,11.82-.41,8.48-2.77,11.75S26.3,44,22.67,44Z"/><path class="cls-3" d="M55.47,1.47,58,17.85a.31.31,0,0,0,.62-.05V1.47h7.33V50.05q0,3.3-4,3.3H57.34L55,35.48a.31.31,0,0,0-.62,0V53.35h-7V9.6a13.23,13.23,0,0,0-.22-2.93,1.66,1.66,0,0,0-1.1-1.1,8.24,8.24,0,0,1-2-.73,1.41,1.41,0,0,1-.88-1.47c0-1.24.88-1.9,2.71-1.9Z"/><path class="cls-1" d="M71.63,53.42V10a14.26,14.26,0,0,0-.23-2.83,1.72,1.72,0,0,0-.83-.74,4.76,4.76,0,0,1-1.84-1,2,2,0,0,1-.81-1.81c0-.83.35-2.22,2.71-2.22H89.5l.35,9.26c0,1.5-.9,2.32-2.52,2.32H87.1a2.2,2.2,0,0,1-2.48-2.28,5.9,5.9,0,0,0-1-2.27C83.13,7.77,82,7.4,80.3,7.4h-.82a11.12,11.12,0,0,0,0,1.22c0,.26,0,.55,0,.88v14h.39c1.53,0,1.71-.15,2.31-.64l.31-.26c.29-.23.27-.58.16-1.45a10,10,0,0,1-.11-1.32c0-.5.24-1.66,2.45-1.66s2.46,1.16,2.46,1.66V33.26c0,.75-.43,1.65-2.46,1.65s-2.45-.9-2.45-1.65a11.31,11.31,0,0,1,.1-1.27c.11-.88.15-1.32-.24-1.68L82,30c-.55-.47-.75-.64-2.16-.64h-.39v16c0,.33,0,.62,0,.89a8.79,8.79,0,0,0,0,1.2H81.4a3.37,3.37,0,0,0,3.1-1.29,11,11,0,0,0,1.1-2.93A2.28,2.28,0,0,1,88,41.16l.45,0c1.54.17,2.46,1,2.46,2.29l-.48,9.94Z"/><path class="cls-2" d="M89,1.94l.33,8.78c0,1.22-.72,1.8-2,1.8H87.1a1.72,1.72,0,0,1-2-1.81,6.26,6.26,0,0,0-1-2.52c-.65-.86-1.88-1.3-3.77-1.3h-1c-.41,0-.3.87-.3,2.6V24h.89c2,0,2-.29,2.93-1s.24-1.72.24-3.16c0-.72.65-1.16,2-1.16s2,.44,2,1.16V33.26c0,.79-.65,1.15-2,1.15s-2-.36-2-1.15c0-1.44.55-2.52-.3-3.31a3.2,3.2,0,0,0-2.87-1.08H79V45.36c0,1.72-.13,2.59.36,2.59H81.4a3.88,3.88,0,0,0,3.52-1.51,11.58,11.58,0,0,0,1.17-3.1,1.8,1.8,0,0,1,2-1.68l.4,0c1.3.15,2,.8,2,1.8L90,52.92H72.13V10a14.37,14.37,0,0,0-.26-3,2.24,2.24,0,0,0-1.11-1,4.46,4.46,0,0,1-1.69-.87,1.49,1.49,0,0,1-.65-1.44c0-1.15.72-1.72,2.21-1.72H89m1-1H70.63c-2.9,0-3.21,1.9-3.21,2.72a2.5,2.5,0,0,0,1,2.24,5.45,5.45,0,0,0,2,1,1.26,1.26,0,0,1,.51.45,14.26,14.26,0,0,1,.2,2.64V53.92H91l0-1,.45-9.43c0-1.24-.76-2.6-2.9-2.84l-.51,0a2.77,2.77,0,0,0-2.93,2.49,10.37,10.37,0,0,1-1,2.77,3,3,0,0,1-2.66,1H80c0-.21,0-.46,0-.69s0-.57,0-.9V29.87c1.12,0,1.25.11,1.73.52l.37.31c.17.18.16.42.07,1.22A10.37,10.37,0,0,0,82,33.26c0,.8.39,2.15,3,2.15s3-1.35,3-2.15V19.87c0-.51-.22-2.16-3-2.16s-3,1.65-3,2.16a9.35,9.35,0,0,0,.12,1.39c0,.45.11.91,0,1l-.31.25c-.52.43-.63.53-1.88.53V9.5c0-.33,0-.62,0-.89s0-.49,0-.71h.35c1.52,0,2.53.31,3,.9a5.28,5.28,0,0,1,.85,2,2.69,2.69,0,0,0,3,2.7h.25c1.88,0,3-1,3-2.8L90,1.9l0-1Z"/><path class="cls-1" d="M124.23,53.42V10A14.26,14.26,0,0,0,124,7.17a1.72,1.72,0,0,0-.83-.74,4.69,4.69,0,0,1-1.84-1,2,2,0,0,1-.81-1.81c0-.83.35-2.22,2.71-2.22H142.1l.35,9.26c0,1.5-.9,2.32-2.52,2.32h-.23a2.21,2.21,0,0,1-2.49-2.28,5.72,5.72,0,0,0-1-2.27c-.54-.71-1.67-1.08-3.36-1.08h-.82a11.12,11.12,0,0,0,0,1.22V23.54h.4c1.53,0,1.71-.15,2.31-.64l.31-.26c.29-.23.27-.58.16-1.45a10,10,0,0,1-.11-1.32c0-.5.24-1.66,2.45-1.66S140,19.37,140,19.87V33.26c0,.75-.43,1.65-2.46,1.65s-2.45-.9-2.45-1.65a9.36,9.36,0,0,1,.1-1.27c.11-.88.14-1.32-.24-1.68l-.37-.3c-.55-.47-.75-.64-2.16-.64h-.4V46.25a8.79,8.79,0,0,0,0,1.2H134a3.37,3.37,0,0,0,3.1-1.29,10.78,10.78,0,0,0,1.1-2.93,2.28,2.28,0,0,1,2.44-2.07l.45,0c1.54.17,2.46,1,2.46,2.29l-.48,9.94Z"/><path class="cls-2" d="M141.62,1.94l.33,8.78c0,1.22-.72,1.8-2,1.8h-.23a1.72,1.72,0,0,1-2-1.81,6.26,6.26,0,0,0-1-2.52c-.65-.86-1.89-1.3-3.77-1.3h-1c-.41,0-.31.87-.31,2.6V24h.9c2,0,2-.29,2.93-1s.24-1.72.24-3.16c0-.72.65-1.16,2-1.16s2,.44,2,1.16V33.26c0,.79-.65,1.15-2,1.15s-2-.36-2-1.15c0-1.44.54-2.52-.3-3.31a3.2,3.2,0,0,0-2.87-1.08h-.9V45.36c0,1.72-.13,2.59.37,2.59H134a3.88,3.88,0,0,0,3.52-1.51,11.58,11.58,0,0,0,1.17-3.1,1.8,1.8,0,0,1,1.95-1.68l.39,0c1.31.15,2,.8,2,1.8l-.45,9.44H124.73V10a14.37,14.37,0,0,0-.26-3,2.24,2.24,0,0,0-1.11-1,4.46,4.46,0,0,1-1.69-.87A1.49,1.49,0,0,1,121,3.66c0-1.15.71-1.72,2.21-1.72h18.39m1-1H123.23c-2.9,0-3.21,1.9-3.21,2.72a2.5,2.5,0,0,0,1,2.24,5.45,5.45,0,0,0,2,1,1.26,1.26,0,0,1,.51.45,14.26,14.26,0,0,1,.2,2.64V53.92h19.82l0-1,.45-9.43c0-1.24-.76-2.6-2.91-2.84l-.5,0a2.77,2.77,0,0,0-2.93,2.49,10.37,10.37,0,0,1-1.05,2.77A3,3,0,0,1,134,47h-1.45c0-.21,0-.46,0-.69V29.87c1.13,0,1.26.11,1.74.52l.37.31c.17.18.16.42.06,1.22a12.69,12.69,0,0,0-.1,1.34c0,.8.38,2.15,3,2.15s3-1.35,3-2.15V19.87c0-.51-.22-2.16-3-2.16s-3,1.65-3,2.16a11,11,0,0,0,.11,1.39c.06.45.12.91,0,1l-.31.25c-.52.43-.63.53-1.89.53V8.61c0-.24,0-.49,0-.71h.35c1.52,0,2.52.31,3,.9a5.28,5.28,0,0,1,.85,2,2.69,2.69,0,0,0,3,2.7H140c1.88,0,3-1,3-2.8l-.33-8.82,0-1Z"/><path class="cls-1" d="M188.44,53.42V10a14.26,14.26,0,0,0-.23-2.83,1.72,1.72,0,0,0-.83-.74,4.69,4.69,0,0,1-1.84-1,2,2,0,0,1-.81-1.81c0-.83.35-2.22,2.71-2.22h18.87l.34,9.26c0,1.5-.89,2.32-2.51,2.32h-.24a2.21,2.21,0,0,1-2.48-2.28,5.87,5.87,0,0,0-.95-2.27c-.54-.71-1.67-1.08-3.37-1.08h-.82a11.62,11.62,0,0,0,0,1.22V23.54h.4c1.53,0,1.71-.15,2.3-.64l.32-.26c.29-.23.27-.58.16-1.45a10,10,0,0,1-.11-1.32c0-.5.24-1.66,2.45-1.66s2.45,1.16,2.45,1.66V33.26c0,.75-.42,1.65-2.45,1.65s-2.45-.9-2.45-1.65a9.36,9.36,0,0,1,.1-1.27c.11-.88.14-1.32-.24-1.68l-.37-.3c-.55-.47-.76-.64-2.16-.64h-.4v16c0,.33,0,.62,0,.89a10.37,10.37,0,0,0,0,1.2h1.92a3.37,3.37,0,0,0,3.1-1.29,10.78,10.78,0,0,0,1.1-2.93,2.28,2.28,0,0,1,2.44-2.07l.44,0c1.55.17,2.47,1,2.47,2.29l-.48,9.94Z"/><path class="cls-2" d="M205.83,1.94l.32,8.78c0,1.22-.71,1.8-2,1.8h-.24a1.71,1.71,0,0,1-2-1.81,6.26,6.26,0,0,0-1-2.52c-.65-.86-1.89-1.3-3.78-1.3h-1c-.41,0-.31.87-.31,2.6V24h.9c2,0,2-.29,2.93-1s.24-1.72.24-3.16c0-.72.65-1.16,1.95-1.16s2,.44,2,1.16V33.26c0,.79-.65,1.15-2,1.15s-1.95-.36-1.95-1.15c0-1.44.54-2.52-.3-3.31a3.2,3.2,0,0,0-2.87-1.08h-.9V45.36c0,1.72-.13,2.59.37,2.59h2.07a3.89,3.89,0,0,0,3.52-1.51,11.58,11.58,0,0,0,1.17-3.1,1.79,1.79,0,0,1,1.95-1.68l.39,0c1.3.15,2,.8,2,1.8l-.46,9.44H188.94V10a14.37,14.37,0,0,0-.26-3,2.24,2.24,0,0,0-1.11-1,4.39,4.39,0,0,1-1.69-.87,1.49,1.49,0,0,1-.65-1.44c0-1.15.71-1.72,2.21-1.72h18.39m1-1H187.44c-2.9,0-3.21,1.9-3.21,2.72a2.5,2.5,0,0,0,1,2.24,5.48,5.48,0,0,0,1.95,1,1.22,1.22,0,0,1,.52.45,15.25,15.25,0,0,1,.2,2.64V53.92h19.82l0-1,.46-9.43c0-1.24-.76-2.6-2.91-2.84l-.5,0a2.77,2.77,0,0,0-2.93,2.49,10.72,10.72,0,0,1-1,2.77,3,3,0,0,1-2.66,1h-1.45v-.69c0-.27,0-.57,0-.9V29.87c1.13,0,1.25.11,1.74.52l.37.31c.17.18.16.42.06,1.22a10.48,10.48,0,0,0-.1,1.34c0,.8.38,2.15,2.95,2.15s3-1.35,3-2.15V19.87c0-.51-.21-2.16-3-2.16s-2.95,1.65-2.95,2.16a11,11,0,0,0,.11,1.39c.06.45.12.91,0,1l-.3.25c-.52.43-.64.53-1.89.53V8.61c0-.24,0-.49,0-.71h.34c1.53,0,2.53.31,3,.9a5.44,5.44,0,0,1,.85,2,2.69,2.69,0,0,0,3,2.7h.26c1.88,0,3-1,3-2.8l-.32-8.82,0-1Z"/><path class="cls-1" d="M100.92,53.42V10a9.51,9.51,0,0,0-.3-2.86,1.49,1.49,0,0,0-.73-.7,4.43,4.43,0,0,1-2-1,2,2,0,0,1-.8-1.81c0-1,.41-2.22,2.36-2.22h11.15c4.6,0,6.63,2,7.6,3l.21.21c2.69,2.63,2.91,6.74,2.91,11.45,0,5.58-1.39,10-3.91,12.56-1.45,1.46-2.67,2.68-5.38,3l-3.34.28V53.42Zm8.85-46.09a1.21,1.21,0,0,0-.85.21c-.26.26-.26,1-.26,1.86V25.17l.37,0a5.75,5.75,0,0,0,2.85-.72c1.49-1.27,1.48-4.64,1.48-7.62v-.67c0-3.51-.4-7.41-.82-7.89l-.2-.2a1.8,1.8,0,0,0-1.76-.7Z"/><path class="cls-2" d="M110.57,1.94A9.19,9.19,0,0,1,118,5c2.65,2.58,2.76,6.84,2.76,11.09,0,5-1.12,9.56-3.76,12.21-1.44,1.43-2.53,2.55-5.09,2.87l-3.37.28-.41,0v21.4h-6.74V10a10.09,10.09,0,0,0-.33-3,2,2,0,0,0-1-1A4.12,4.12,0,0,1,98.2,5.1a1.57,1.57,0,0,1-.64-1.44c0-1.15.58-1.72,1.86-1.72h11.15m-2.41,23.79c1.39-.18,3.15-.18,4-.94,1.79-1.52,1.65-5.36,1.65-8.67,0-2.81-.3-7.58-1-8.24a2.43,2.43,0,0,0-2.32-1h-.8c-1.67,0-1.61.94-1.61,2.74V25.73M110.57.94H99.42a2.54,2.54,0,0,0-2.86,2.72,2.55,2.55,0,0,0,1,2.23,5.05,5.05,0,0,0,2.17,1,1.14,1.14,0,0,1,.42.45,9.73,9.73,0,0,1,.25,2.63V53.92h8.74V32.43L112,32.2c2.92-.37,4.19-1.64,5.67-3.12l0,0c2.61-2.61,4.05-7.2,4.05-12.91,0-3.93,0-8.82-3.06-11.81-.06-.06-.13-.12-.2-.2-1-1-3.15-3.17-8-3.17Zm-1.3,7a1.43,1.43,0,0,1,.5-.06h.8c.87,0,.91,0,1.41.55l.16.17c.36.69.71,4.4.71,7.57v.67c0,2.73,0,6.12-1.31,7.24a5.24,5.24,0,0,1-2.39.59V9.4a5.33,5.33,0,0,1,.11-1.51Z"/><path class="cls-1" d="M177.48,53.9c-3.84,0-7.23-2.75-9.08-7.35-2.22-5.31-3.22-9.47-3.22-20.13,0-7.46.87-13.67,2.57-18.46C169.33,3.43,172.8.5,176.6.5a7.33,7.33,0,0,1,6.19,3.92c1.4,2.52,1.68,5.32,1.68,8.75v.5h-5.15l0-.48c0-.55,0-1,0-1.41a2.75,2.75,0,0,0-.5-2.19,1.46,1.46,0,0,0-1.34-.69c-1.32,0-1.85.38-2.86,2.87-1.24,3.06-1.82,7.33-1.82,13.42V26.7c0,7.62,0,13.12,1.64,16.26s2.37,4.42,3.69,4.42a2.18,2.18,0,0,0,.55-.07l.32-.06a1.47,1.47,0,0,0,.86-.38,1.35,1.35,0,0,0,.38-.65,3,3,0,0,1,.48-.9,2.6,2.6,0,0,1,1.95-.78,2,2,0,0,1,.38,0,2,2,0,0,1,1.65,1.62,5.84,5.84,0,0,1,.17,2.06l-.05.28a4,4,0,0,1-.44,1.49,9.62,9.62,0,0,1-2.43,2.73,6.92,6.92,0,0,1-3.36,1.07l-.16,0A7.54,7.54,0,0,1,177.48,53.9Z"/><path class="cls-2" d="M176.6,1a6.85,6.85,0,0,1,5.76,3.67c1.4,2.52,1.61,5.33,1.61,8.5H179.8c-.06-2,.3-2.77-.6-3.9a2,2,0,0,0-1.73-.87c-1.69,0-2.33.73-3.33,3.18-1.37,3.41-1.85,8-1.85,13.61,0,8.5-.12,14.55,1.7,18,1.59,3.13,2.49,4.68,4.13,4.68a3,3,0,0,0,.65-.08,2.42,2.42,0,0,0,1.38-.52c.52-.36.52-1.13.94-1.64a2.09,2.09,0,0,1,1.57-.6l.3,0a1.44,1.44,0,0,1,1.24,1.23,5.33,5.33,0,0,1,.17,1.87,4.71,4.71,0,0,1-.42,1.59,9.45,9.45,0,0,1-2.31,2.6,7,7,0,0,1-3.29,1,8.46,8.46,0,0,1-.87,0c-3.31,0-6.7-2.27-8.61-7-2.15-5.11-3.19-9.07-3.19-19.94,0-7.42.85-13.54,2.54-18.29S173.35,1,176.6,1m0-1c-4,0-7.67,3.06-9.33,7.8s-2.59,11.1-2.59,18.62c0,10.74,1,14.95,3.27,20.33,1.92,4.79,5.48,7.65,9.53,7.65a8.22,8.22,0,0,0,1-.06l.18,0a7.54,7.54,0,0,0,3.58-1.16,10.54,10.54,0,0,0,2.58-2.9,4.65,4.65,0,0,0,.5-1.64l0-.28a6.1,6.1,0,0,0-.16-2.22,2.47,2.47,0,0,0-2.06-2,3.38,3.38,0,0,0-.47,0,3.12,3.12,0,0,0-2.36,1,3.33,3.33,0,0,0-.53,1,2.08,2.08,0,0,1-.2.42,1.16,1.16,0,0,1-.68.3l-.32.07a2.48,2.48,0,0,1-.45.05c-1,0-1.67-1-3.24-4.14s-1.6-8.49-1.59-16V25.19c0-6,.57-10.23,1.78-13.23,1-2.46,1.43-2.56,2.4-2.56a.93.93,0,0,1,.9.44l0,.06c.41.51.42.81.39,1.87,0,.4,0,.86,0,1.43l0,1H185v-1c0-3.51-.29-6.38-1.73-9A7.85,7.85,0,0,0,176.6,0Z"/><path class="cls-4" d="M22.67,38.68c-8.62,0-16.62-3.39-21.37-9.07a3.38,3.38,0,0,1,0-4.4c4.76-5.66,12.74-9,21.34-9s16.62,3.39,21.38,9.08a3.39,3.39,0,0,1,.8,2.18A3.43,3.43,0,0,1,44,29.64C39.26,35.3,31.28,38.68,22.67,38.68Z"/><path class="cls-2" d="M22.67,16.67c8.8,0,16.51,3.54,21,8.9a2.88,2.88,0,0,1,0,3.75c-4.49,5.34-12.19,8.86-21,8.86s-16.51-3.54-21-8.89a2.89,2.89,0,0,1,0-3.76c4.49-5.34,12.19-8.86,21-8.86m0-1c-8.75,0-16.87,3.44-21.73,9.22A4,4,0,0,0,0,27.43a3.84,3.84,0,0,0,.91,2.49c4.85,5.8,13,9.26,21.76,9.26S39.55,35.74,44.4,30a3.87,3.87,0,0,0,0-5c-4.86-5.8-13-9.26-21.77-9.26Z"/><path class="cls-5" d="M147.54,51.23c-2,.39-3.19,2.23-2.07,2.23h5c.64,0,.27-1.46-1-2.05l1.74-9.87a12.35,12.35,0,0,1-1.81-.57Z"/><path class="cls-5" d="M161.88,51.23,160,40.47a11.94,11.94,0,0,1-1.78.77L160,51.41c-1.29.59-1.66,2.05-1,2.05h5C165.08,53.46,163.87,51.62,161.88,51.23Z"/><path class="cls-6" d="M154.14,42.38a13.94,13.94,0,0,1-3.09-.35,11.89,11.89,0,0,1-1.89-.6c-3-1.24-4.81-3.43-4.81-5.86a9.63,9.63,0,0,1,.68-3.5c.07-.17,2.27-5.46,3.27-7.2.54-1,1.37-2.76,2-4.1a9.3,9.3,0,0,0,.82-3.82V15.54l.07-.12a8.57,8.57,0,0,0,.92-2.16h0s-.2-.72-2-.9l-.6,0a2.5,2.5,0,0,0-.86.12l-.36.14-.22-.31a6.69,6.69,0,0,1-1.32-4,6.82,6.82,0,0,1,6.81-6.82h.12a6.9,6.9,0,0,1,6.66,6.1,6.84,6.84,0,0,1-4.08,7v.78a14,14,0,0,0,2,7.21c.48.81,1,1.59,1.29,2.22s1.08,2.13,1.74,3.48,1.49,3.06,1.79,3.56l-.36.37.43-.26a1.46,1.46,0,0,1,.1.2,9.57,9.57,0,0,1,.66,3.45c0,2.09-1.35,4-3.7,5.34a12.24,12.24,0,0,1-1.86.8A13.52,13.52,0,0,1,154.14,42.38Z"/><path class="cls-2" d="M153.58,2h.11a6.4,6.4,0,0,1,6.17,5.66,6.3,6.3,0,0,1-4.08,6.57v1.12a14.57,14.57,0,0,0,2.07,7.47c.48.8,1,1.57,1.28,2.2.86,1.58,3,6.09,3.54,7.06l.07.11a.73.73,0,0,1,.07.14,8.94,8.94,0,0,1,.62,3.25c0,2-1.34,3.74-3.44,4.9a11.94,11.94,0,0,1-1.78.77,13.25,13.25,0,0,1-7.05.3,12.35,12.35,0,0,1-1.81-.57c-2.69-1.11-4.5-3.11-4.5-5.4a9.16,9.16,0,0,1,.62-3.25s2.26-5.46,3.26-7.2c.55-1,1.38-2.76,2-4.15a9.75,9.75,0,0,0,.86-4V15.67a7.17,7.17,0,0,0,1-2.46c-.07-.38-.56-1.16-2.39-1.35l-.65,0a3,3,0,0,0-1,.15,6.22,6.22,0,0,1-1.22-3.67A6.31,6.31,0,0,1,153.58,2m0-1a7.32,7.32,0,0,0-7.31,7.32,7.19,7.19,0,0,0,1.42,4.26l.45.62.71-.27a1.8,1.8,0,0,1,.68-.09l.55,0a2.3,2.3,0,0,1,1.46.5,10.12,10.12,0,0,1-.81,1.8l-.14.24V17a8.85,8.85,0,0,1-.77,3.62c-.85,1.91-1.53,3.31-2,4.05-1,1.7-3.05,6.69-3.3,7.27a10.25,10.25,0,0,0-.71,3.68c0,2.64,1.91,5,5.12,6.32a13.17,13.17,0,0,0,2,.63,14.43,14.43,0,0,0,3.21.36,13.58,13.58,0,0,0,4.38-.7,11.21,11.21,0,0,0,1.95-.83c2.52-1.39,4-3.5,4-5.78a10.13,10.13,0,0,0-.72-3.7l-.11-.21-.09-.13c-.27-.46-1-2-1.76-3.5s-1.33-2.74-1.74-3.5-.83-1.46-1.3-2.24a13.51,13.51,0,0,1-1.93-6.95v-.46a7.34,7.34,0,0,0,4.08-7.34A7.42,7.42,0,0,0,153.71,1Z"/><path class="cls-5" d="M150.18,11.86c-.87-.08-1.21.12-1.45.45a13,13,0,0,1-2,2.5c-1.46,1.39.13,1.79.66,1.86s2.5,1.4,4.16-2.1a5.25,5.25,0,0,0,.5-1.45C152,12.74,152,12.05,150.18,11.86Z"/><circle class="cls-7" cx="15.43" cy="27.43" r="3.9"/><circle class="cls-7" cx="29.92" cy="27.43" r="3.9"/><circle class="cls-2" cx="29.92" cy="27.43" r="2.66"/><circle class="cls-2" cx="153.33" cy="9.86" r="0.81"/><circle class="cls-2" cx="148.91" cy="9.59" r="0.81"/><circle class="cls-2" cx="15.43" cy="27.43" r="2.66"/></g></g></svg>